<mxfile host="app.diagrams.net" modified="2023-10-11T19:47:10.123Z" agent="Mozilla/5.0 (Windows NT 10.0; Win64; x64) AppleWebKit/537.36 (KHTML, like Gecko) Chrome/117.0.0.0 Safari/537.36" etag="Ezl26wyNlrBmqixXN_vV" version="22.0.4" type="github">
  <diagram name="Page-1" id="-rtCoEtxO6jUr8peSWGv">
    <mxGraphModel dx="808" dy="425" grid="1" gridSize="10" guides="1" tooltips="1" connect="1" arrows="1" fold="1" page="1" pageScale="1" pageWidth="850" pageHeight="1100" math="0" shadow="0">
      <root>
        <mxCell id="0" />
        <mxCell id="1" parent="0" />
        <mxCell id="xYWJjnWucS3w8_YNbyNp-1" value="&lt;h1 style=&quot;&quot;&gt;ISP&lt;/h1&gt;&lt;p style=&quot;font-size: 13px;&quot;&gt;Interface Segregation Principle&lt;/p&gt;" style="text;html=1;strokeColor=#6c8ebf;fillColor=#dae8fc;spacing=5;spacingTop=-20;whiteSpace=wrap;overflow=hidden;rounded=0;align=center;" vertex="1" parent="1">
          <mxGeometry x="10" y="10" width="830" height="70" as="geometry" />
        </mxCell>
        <mxCell id="xYWJjnWucS3w8_YNbyNp-2" value="&lt;h1&gt;Before&lt;/h1&gt;" style="text;html=1;strokeColor=#b85450;fillColor=#f8cecc;align=center;verticalAlign=middle;whiteSpace=wrap;rounded=0;" vertex="1" parent="1">
          <mxGeometry x="10" y="120" width="110" height="30" as="geometry" />
        </mxCell>
        <mxCell id="xYWJjnWucS3w8_YNbyNp-3" value="&lt;h1&gt;After&lt;/h1&gt;" style="text;html=1;strokeColor=#82b366;fillColor=#d5e8d4;align=center;verticalAlign=middle;whiteSpace=wrap;rounded=0;" vertex="1" parent="1">
          <mxGeometry x="10" y="620" width="110" height="30" as="geometry" />
        </mxCell>
        <mxCell id="xYWJjnWucS3w8_YNbyNp-4" style="edgeStyle=orthogonalEdgeStyle;rounded=0;orthogonalLoop=1;jettySize=auto;html=1;" edge="1" parent="1" source="xYWJjnWucS3w8_YNbyNp-5" target="xYWJjnWucS3w8_YNbyNp-6">
          <mxGeometry relative="1" as="geometry" />
        </mxCell>
        <mxCell id="xYWJjnWucS3w8_YNbyNp-5" value="&lt;p style=&quot;text-align: center; margin: 4px 0px 0px; line-height: 200%;&quot;&gt;&lt;b&gt;FinancialDataService           &lt;/b&gt;&lt;br&gt;&lt;/p&gt;&lt;hr style=&quot;line-height: 200%;&quot; size=&quot;1&quot;&gt;&lt;p style=&quot;margin: 0px 0px 0px 4px; line-height: 200%;&quot;&gt;&lt;span style=&quot;background-color: initial;&quot;&gt;- _smsApi: SmsApi&amp;nbsp;&lt;/span&gt;&lt;br&gt;&lt;/p&gt;&lt;p style=&quot;margin: 0px 0px 0px 4px; line-height: 200%;&quot;&gt;- _tradingApi: TradingApi&lt;/p&gt;&lt;hr style=&quot;line-height: 200%;&quot; size=&quot;1&quot;&gt;&lt;p style=&quot;margin: 0px 0px 0px 4px; line-height: 200%;&quot;&gt;+ GetMetrics&amp;nbsp;&lt;/p&gt;&lt;p style=&quot;margin: 0px 0px 0px 4px; line-height: 200%;&quot;&gt;+ GetRanks&amp;nbsp;&lt;/p&gt;&lt;p style=&quot;margin: 0px 0px 0px 4px; line-height: 200%;&quot;&gt;+ ExportData&lt;/p&gt;&lt;p style=&quot;margin: 0px 0px 0px 4px; line-height: 200%;&quot;&gt;+ SendData&lt;/p&gt;&lt;p style=&quot;margin: 0px 0px 0px 4px; line-height: 200%;&quot;&gt;&lt;span style=&quot;background-color: initial;&quot;&gt;+ SendEmailAlert&lt;/span&gt;&lt;/p&gt;&lt;p style=&quot;margin: 0px 0px 0px 4px; line-height: 200%;&quot;&gt;&lt;span style=&quot;background-color: initial;&quot;&gt;+ SendSmsAlert&lt;/span&gt;&lt;/p&gt;&lt;p style=&quot;margin: 0px 0px 0px 4px; line-height: 200%;&quot;&gt;&lt;span style=&quot;background-color: initial;&quot;&gt;+ BuyStock&lt;/span&gt;&lt;/p&gt;&lt;p style=&quot;margin: 0px 0px 0px 4px; line-height: 200%;&quot;&gt;&lt;span style=&quot;background-color: initial;&quot;&gt;+ SellStock&lt;/span&gt;&lt;/p&gt;" style="verticalAlign=top;align=left;overflow=fill;fontSize=12;fontFamily=Helvetica;html=1;whiteSpace=wrap;" vertex="1" parent="1">
          <mxGeometry x="70" y="190" width="240" height="340" as="geometry" />
        </mxCell>
        <mxCell id="xYWJjnWucS3w8_YNbyNp-6" value="&lt;p style=&quot;margin: 4px 0px 0px; text-align: center; line-height: 180%;&quot;&gt;&lt;i&gt;&amp;lt;&amp;lt;Interface&amp;gt;&amp;gt;&lt;/i&gt;&lt;br&gt;&lt;b&gt;IFinancialDataService           &lt;/b&gt;&lt;br&gt;&lt;/p&gt;&lt;hr style=&quot;line-height: 180%;&quot; size=&quot;1&quot;&gt;&lt;p style=&quot;margin: 0px 0px 0px 4px; line-height: 180%;&quot;&gt;&lt;/p&gt;&lt;p style=&quot;border-color: var(--border-color); margin: 0px 0px 0px 4px; line-height: 24px;&quot;&gt;+ GetMetrics&amp;nbsp;&lt;/p&gt;&lt;p style=&quot;border-color: var(--border-color); margin: 0px 0px 0px 4px; line-height: 24px;&quot;&gt;+ GetRanks&amp;nbsp;&lt;/p&gt;&lt;p style=&quot;border-color: var(--border-color); margin: 0px 0px 0px 4px; line-height: 24px;&quot;&gt;+ ExportData&lt;/p&gt;&lt;p style=&quot;border-color: var(--border-color); margin: 0px 0px 0px 4px; line-height: 24px;&quot;&gt;+ SendData&lt;/p&gt;&lt;p style=&quot;border-color: var(--border-color); margin: 0px 0px 0px 4px; line-height: 24px;&quot;&gt;+ SendEmailAlert&lt;/p&gt;&lt;p style=&quot;border-color: var(--border-color); margin: 0px 0px 0px 4px; line-height: 24px;&quot;&gt;&lt;span style=&quot;border-color: var(--border-color); background-color: initial;&quot;&gt;+ SendSmsAlert&lt;/span&gt;&lt;/p&gt;&lt;p style=&quot;border-color: var(--border-color); margin: 0px 0px 0px 4px; line-height: 24px;&quot;&gt;&lt;span style=&quot;border-color: var(--border-color); background-color: initial;&quot;&gt;+ BuyStock&lt;/span&gt;&lt;/p&gt;&lt;p style=&quot;border-color: var(--border-color); margin: 0px 0px 0px 4px; line-height: 24px;&quot;&gt;&lt;span style=&quot;border-color: var(--border-color); background-color: initial;&quot;&gt;+ SellStock&lt;/span&gt;&lt;/p&gt;" style="verticalAlign=top;align=left;overflow=fill;fontSize=12;fontFamily=Helvetica;html=1;whiteSpace=wrap;" vertex="1" parent="1">
          <mxGeometry x="400" y="222" width="210" height="275" as="geometry" />
        </mxCell>
        <mxCell id="xYWJjnWucS3w8_YNbyNp-7" value="" style="endArrow=none;html=1;rounded=0;" edge="1" parent="1">
          <mxGeometry width="50" height="50" relative="1" as="geometry">
            <mxPoint x="10" y="590" as="sourcePoint" />
            <mxPoint x="840" y="590" as="targetPoint" />
          </mxGeometry>
        </mxCell>
        <mxCell id="xYWJjnWucS3w8_YNbyNp-8" style="edgeStyle=orthogonalEdgeStyle;rounded=0;orthogonalLoop=1;jettySize=auto;html=1;entryX=0.5;entryY=1;entryDx=0;entryDy=0;" edge="1" parent="1" source="xYWJjnWucS3w8_YNbyNp-9" target="xYWJjnWucS3w8_YNbyNp-24">
          <mxGeometry relative="1" as="geometry" />
        </mxCell>
        <mxCell id="xYWJjnWucS3w8_YNbyNp-9" value="&lt;p style=&quot;margin: 4px 0px 0px; text-align: center; line-height: 180%;&quot;&gt;&lt;b&gt;FinancialDataService           &lt;/b&gt;&lt;br&gt;&lt;/p&gt;&lt;hr style=&quot;line-height: 180%;&quot; size=&quot;1&quot;&gt;&lt;p style=&quot;margin: 0px 0px 0px 4px; line-height: 180%;&quot;&gt;&lt;/p&gt;&lt;p style=&quot;border-color: var(--border-color); margin: 0px 0px 0px 4px; line-height: 24px;&quot;&gt;+ GetMetrics&amp;nbsp;&lt;/p&gt;&lt;p style=&quot;border-color: var(--border-color); margin: 0px 0px 0px 4px; line-height: 24px;&quot;&gt;+ GetRanks&amp;nbsp;&lt;/p&gt;" style="verticalAlign=top;align=left;overflow=fill;fontSize=12;fontFamily=Helvetica;html=1;whiteSpace=wrap;" vertex="1" parent="1">
          <mxGeometry x="40" y="1280" width="160" height="140" as="geometry" />
        </mxCell>
        <mxCell id="xYWJjnWucS3w8_YNbyNp-10" value="&lt;p style=&quot;margin: 4px 0px 0px; text-align: center; line-height: 180%;&quot;&gt;&lt;b&gt;NotificationService&lt;/b&gt;&lt;br&gt;&lt;/p&gt;&lt;hr style=&quot;line-height: 180%;&quot; size=&quot;1&quot;&gt;&lt;p style=&quot;margin: 0px 0px 0px 4px; line-height: 180%;&quot;&gt;&lt;/p&gt;&lt;p style=&quot;border-color: var(--border-color); margin: 0px 0px 0px 4px; line-height: 24px;&quot;&gt;&lt;span style=&quot;background-color: initial;&quot;&gt;+ SendData&lt;/span&gt;&lt;br&gt;&lt;/p&gt;&lt;p style=&quot;border-color: var(--border-color); margin: 0px 0px 0px 4px; line-height: 24px;&quot;&gt;+ SendEmailAlert&lt;/p&gt;&lt;p style=&quot;border-color: var(--border-color); margin: 0px 0px 0px 4px; line-height: 24px;&quot;&gt;&lt;span style=&quot;border-color: var(--border-color); background-color: initial;&quot;&gt;+ SendSmsAlert&lt;/span&gt;&lt;/p&gt;" style="verticalAlign=top;align=left;overflow=fill;fontSize=12;fontFamily=Helvetica;html=1;whiteSpace=wrap;" vertex="1" parent="1">
          <mxGeometry x="443" y="1280" width="160" height="140" as="geometry" />
        </mxCell>
        <mxCell id="xYWJjnWucS3w8_YNbyNp-11" style="edgeStyle=orthogonalEdgeStyle;rounded=0;orthogonalLoop=1;jettySize=auto;html=1;entryX=0.5;entryY=1;entryDx=0;entryDy=0;" edge="1" parent="1" source="xYWJjnWucS3w8_YNbyNp-12" target="xYWJjnWucS3w8_YNbyNp-26">
          <mxGeometry relative="1" as="geometry" />
        </mxCell>
        <mxCell id="xYWJjnWucS3w8_YNbyNp-12" value="&lt;p style=&quot;margin: 4px 0px 0px; text-align: center; line-height: 180%;&quot;&gt;&lt;b&gt;TradeService&lt;/b&gt;&lt;br&gt;&lt;/p&gt;&lt;hr style=&quot;line-height: 180%;&quot; size=&quot;1&quot;&gt;&lt;p style=&quot;margin: 0px 0px 0px 4px; line-height: 180%;&quot;&gt;&lt;/p&gt;&lt;p style=&quot;border-color: var(--border-color); margin: 0px 0px 0px 4px; line-height: 24px;&quot;&gt;&lt;span style=&quot;background-color: initial;&quot;&gt;+ BuyStock&lt;/span&gt;&lt;br&gt;&lt;/p&gt;&lt;p style=&quot;border-color: var(--border-color); margin: 0px 0px 0px 4px; line-height: 24px;&quot;&gt;&lt;span style=&quot;border-color: var(--border-color); background-color: initial;&quot;&gt;+ SellStock&lt;/span&gt;&lt;/p&gt;" style="verticalAlign=top;align=left;overflow=fill;fontSize=12;fontFamily=Helvetica;html=1;whiteSpace=wrap;" vertex="1" parent="1">
          <mxGeometry x="630" y="1280" width="160" height="140" as="geometry" />
        </mxCell>
        <mxCell id="xYWJjnWucS3w8_YNbyNp-13" style="edgeStyle=orthogonalEdgeStyle;rounded=0;orthogonalLoop=1;jettySize=auto;html=1;entryX=0.5;entryY=1;entryDx=0;entryDy=0;" edge="1" parent="1" source="xYWJjnWucS3w8_YNbyNp-14" target="xYWJjnWucS3w8_YNbyNp-27">
          <mxGeometry relative="1" as="geometry" />
        </mxCell>
        <mxCell id="xYWJjnWucS3w8_YNbyNp-14" value="&lt;p style=&quot;margin: 4px 0px 0px; text-align: center; line-height: 180%;&quot;&gt;&lt;b&gt;ExportService&lt;/b&gt;&lt;br&gt;&lt;/p&gt;&lt;hr style=&quot;line-height: 180%;&quot; size=&quot;1&quot;&gt;&lt;p style=&quot;margin: 0px 0px 0px 4px; line-height: 180%;&quot;&gt;&lt;/p&gt;&lt;p style=&quot;border-color: var(--border-color); margin: 0px 0px 0px 4px; line-height: 24px;&quot;&gt;&lt;span style=&quot;background-color: initial;&quot;&gt;+ ExportData&lt;/span&gt;&lt;br&gt;&lt;/p&gt;&lt;p style=&quot;border-color: var(--border-color); margin: 0px 0px 0px 4px; line-height: 24px;&quot;&gt;&lt;br&gt;&lt;/p&gt;" style="verticalAlign=top;align=left;overflow=fill;fontSize=12;fontFamily=Helvetica;html=1;whiteSpace=wrap;" vertex="1" parent="1">
          <mxGeometry x="240" y="1280" width="160" height="140" as="geometry" />
        </mxCell>
        <mxCell id="xYWJjnWucS3w8_YNbyNp-15" style="edgeStyle=orthogonalEdgeStyle;rounded=0;orthogonalLoop=1;jettySize=auto;html=1;entryX=0.368;entryY=0.01;entryDx=0;entryDy=0;exitX=0.344;exitY=0.998;exitDx=0;exitDy=0;exitPerimeter=0;entryPerimeter=0;dashed=1;" edge="1" parent="1" source="xYWJjnWucS3w8_YNbyNp-16" target="xYWJjnWucS3w8_YNbyNp-24">
          <mxGeometry relative="1" as="geometry" />
        </mxCell>
        <mxCell id="xYWJjnWucS3w8_YNbyNp-16" value="&lt;p style=&quot;text-align: center; margin: 4px 0px 0px; line-height: 200%;&quot;&gt;&lt;b&gt;DailyFinancialsApi&lt;/b&gt;&lt;br&gt;&lt;/p&gt;&lt;hr style=&quot;line-height: 200%;&quot; size=&quot;1&quot;&gt;&lt;p style=&quot;margin: 0px 0px 0px 4px; line-height: 200%;&quot;&gt; - _finDataService: IFinancialDataService&amp;nbsp;&lt;br&gt;&lt;/p&gt;&lt;hr style=&quot;line-height: 200%;&quot; size=&quot;1&quot;&gt;&lt;p style=&quot;margin: 0px 0px 0px 4px; line-height: 200%;&quot;&gt;+ GetMetrics&amp;nbsp;&lt;/p&gt;&lt;p style=&quot;margin: 0px 0px 0px 4px; line-height: 200%;&quot;&gt;+ GetRanks&amp;nbsp;&lt;/p&gt;" style="verticalAlign=top;align=left;overflow=fill;fontSize=12;fontFamily=Helvetica;html=1;whiteSpace=wrap;" vertex="1" parent="1">
          <mxGeometry x="10" y="710" width="260" height="180" as="geometry" />
        </mxCell>
        <mxCell id="xYWJjnWucS3w8_YNbyNp-17" style="edgeStyle=orthogonalEdgeStyle;rounded=0;orthogonalLoop=1;jettySize=auto;html=1;exitX=0;exitY=1;exitDx=0;exitDy=0;entryX=0.75;entryY=0;entryDx=0;entryDy=0;dashed=1;" edge="1" parent="1" source="xYWJjnWucS3w8_YNbyNp-20" target="xYWJjnWucS3w8_YNbyNp-24">
          <mxGeometry relative="1" as="geometry" />
        </mxCell>
        <mxCell id="xYWJjnWucS3w8_YNbyNp-18" style="edgeStyle=orthogonalEdgeStyle;rounded=0;orthogonalLoop=1;jettySize=auto;html=1;exitX=0.25;exitY=1;exitDx=0;exitDy=0;entryX=0.5;entryY=0;entryDx=0;entryDy=0;dashed=1;" edge="1" parent="1" source="xYWJjnWucS3w8_YNbyNp-20" target="xYWJjnWucS3w8_YNbyNp-27">
          <mxGeometry relative="1" as="geometry" />
        </mxCell>
        <mxCell id="xYWJjnWucS3w8_YNbyNp-19" style="edgeStyle=orthogonalEdgeStyle;rounded=0;orthogonalLoop=1;jettySize=auto;html=1;exitX=0.75;exitY=1;exitDx=0;exitDy=0;entryX=0.25;entryY=0;entryDx=0;entryDy=0;dashed=1;" edge="1" parent="1" source="xYWJjnWucS3w8_YNbyNp-20" target="xYWJjnWucS3w8_YNbyNp-25">
          <mxGeometry relative="1" as="geometry" />
        </mxCell>
        <mxCell id="xYWJjnWucS3w8_YNbyNp-20" value="&lt;p style=&quot;text-align: center; margin: 4px 0px 0px; line-height: 200%;&quot;&gt;&lt;b&gt;FinancialReportingApi&lt;/b&gt;&lt;br&gt;&lt;/p&gt;&lt;hr style=&quot;line-height: 200%;&quot; size=&quot;1&quot;&gt;&lt;p style=&quot;margin: 0px 0px 0px 4px; line-height: 200%;&quot;&gt; - _finDataService: IFinancialDataService&amp;nbsp;&lt;br&gt;&lt;/p&gt;&lt;p style=&quot;margin: 0px 0px 0px 4px; line-height: 200%;&quot;&gt;&lt;/p&gt;&amp;nbsp;- _exportService: IExportService&amp;nbsp;&lt;br style=&quot;border-color: var(--border-color);&quot;&gt;&lt;p style=&quot;margin: 0px 0px 0px 4px; line-height: 200%;&quot;&gt;- _notificationsService: INotificationsService&amp;nbsp;&lt;br style=&quot;border-color: var(--border-color);&quot;&gt;&lt;/p&gt;&lt;hr style=&quot;line-height: 200%;&quot; size=&quot;1&quot;&gt;&lt;p style=&quot;margin: 0px 0px 0px 4px; line-height: 200%;&quot;&gt;+ ExportData&amp;nbsp;&lt;/p&gt;&lt;p style=&quot;margin: 0px 0px 0px 4px; line-height: 200%;&quot;&gt;+ SendData&lt;/p&gt;" style="verticalAlign=top;align=left;overflow=fill;fontSize=12;fontFamily=Helvetica;html=1;whiteSpace=wrap;" vertex="1" parent="1">
          <mxGeometry x="295" y="710" width="260" height="180" as="geometry" />
        </mxCell>
        <mxCell id="xYWJjnWucS3w8_YNbyNp-21" style="edgeStyle=orthogonalEdgeStyle;rounded=0;orthogonalLoop=1;jettySize=auto;html=1;exitX=0.25;exitY=1;exitDx=0;exitDy=0;entryX=0.75;entryY=0;entryDx=0;entryDy=0;dashed=1;" edge="1" parent="1" source="xYWJjnWucS3w8_YNbyNp-23" target="xYWJjnWucS3w8_YNbyNp-25">
          <mxGeometry relative="1" as="geometry" />
        </mxCell>
        <mxCell id="xYWJjnWucS3w8_YNbyNp-22" style="edgeStyle=orthogonalEdgeStyle;rounded=0;orthogonalLoop=1;jettySize=auto;html=1;dashed=1;" edge="1" parent="1" source="xYWJjnWucS3w8_YNbyNp-23" target="xYWJjnWucS3w8_YNbyNp-26">
          <mxGeometry relative="1" as="geometry" />
        </mxCell>
        <mxCell id="xYWJjnWucS3w8_YNbyNp-23" value="&lt;p style=&quot;text-align: center; margin: 4px 0px 0px; line-height: 200%;&quot;&gt;&lt;b&gt;TradingApi&lt;/b&gt;&lt;br&gt;&lt;/p&gt;&lt;hr style=&quot;line-height: 200%;&quot; size=&quot;1&quot;&gt;&lt;p style=&quot;margin: 0px 0px 0px 4px; line-height: 200%;&quot;&gt;- _notificationsService: INotificationsService&lt;br&gt;&lt;/p&gt;&lt;p style=&quot;margin: 0px 0px 0px 4px; line-height: 200%;&quot;&gt;- _tradeService: ITradeService&lt;/p&gt;&lt;hr style=&quot;line-height: 200%;&quot; size=&quot;1&quot;&gt;&lt;p style=&quot;margin: 0px 0px 0px 4px; line-height: 200%;&quot;&gt;+ Buy&lt;/p&gt;&lt;p style=&quot;margin: 0px 0px 0px 4px; line-height: 200%;&quot;&gt;+ Sell&lt;/p&gt;" style="verticalAlign=top;align=left;overflow=fill;fontSize=12;fontFamily=Helvetica;html=1;whiteSpace=wrap;" vertex="1" parent="1">
          <mxGeometry x="580" y="710" width="260" height="180" as="geometry" />
        </mxCell>
        <mxCell id="xYWJjnWucS3w8_YNbyNp-24" value="&lt;p style=&quot;margin: 4px 0px 0px; text-align: center; line-height: 180%;&quot;&gt;&lt;i&gt;&amp;lt;&amp;lt;Interface&amp;gt;&amp;gt;&lt;/i&gt;&lt;br&gt;&lt;b&gt;IFinancialDataService           &lt;/b&gt;&lt;br&gt;&lt;/p&gt;&lt;hr style=&quot;line-height: 180%;&quot; size=&quot;1&quot;&gt;&lt;p style=&quot;margin: 0px 0px 0px 4px; line-height: 180%;&quot;&gt;&lt;/p&gt;&lt;p style=&quot;border-color: var(--border-color); margin: 0px 0px 0px 4px; line-height: 24px;&quot;&gt;+ GetMetrics&amp;nbsp;&lt;/p&gt;&lt;p style=&quot;border-color: var(--border-color); margin: 0px 0px 0px 4px; line-height: 24px;&quot;&gt;+ GetRanks&amp;nbsp;&lt;/p&gt;" style="verticalAlign=top;align=left;overflow=fill;fontSize=12;fontFamily=Helvetica;html=1;whiteSpace=wrap;" vertex="1" parent="1">
          <mxGeometry x="40" y="1003" width="160" height="140" as="geometry" />
        </mxCell>
        <mxCell id="xYWJjnWucS3w8_YNbyNp-25" value="&lt;p style=&quot;margin: 4px 0px 0px; text-align: center; line-height: 180%;&quot;&gt;&lt;i&gt;&amp;lt;&amp;lt;Interface&amp;gt;&amp;gt;&lt;/i&gt;&lt;br&gt;&lt;b&gt;INotificationService&lt;/b&gt;&lt;br&gt;&lt;/p&gt;&lt;hr style=&quot;line-height: 180%;&quot; size=&quot;1&quot;&gt;&lt;p style=&quot;margin: 0px 0px 0px 4px; line-height: 180%;&quot;&gt;&lt;/p&gt;&lt;p style=&quot;border-color: var(--border-color); margin: 0px 0px 0px 4px; line-height: 24px;&quot;&gt;&lt;span style=&quot;background-color: initial;&quot;&gt;+ SendData&lt;/span&gt;&lt;br&gt;&lt;/p&gt;&lt;p style=&quot;border-color: var(--border-color); margin: 0px 0px 0px 4px; line-height: 24px;&quot;&gt;+ SendEmailAlert&lt;/p&gt;&lt;p style=&quot;border-color: var(--border-color); margin: 0px 0px 0px 4px; line-height: 24px;&quot;&gt;&lt;span style=&quot;border-color: var(--border-color); background-color: initial;&quot;&gt;+ SendSmsAlert&lt;/span&gt;&lt;/p&gt;" style="verticalAlign=top;align=left;overflow=fill;fontSize=12;fontFamily=Helvetica;html=1;whiteSpace=wrap;" vertex="1" parent="1">
          <mxGeometry x="450" y="1003" width="160" height="140" as="geometry" />
        </mxCell>
        <mxCell id="xYWJjnWucS3w8_YNbyNp-26" value="&lt;p style=&quot;margin: 4px 0px 0px; text-align: center; line-height: 180%;&quot;&gt;&lt;i&gt;&amp;lt;&amp;lt;Interface&amp;gt;&amp;gt;&lt;/i&gt;&lt;br&gt;&lt;b&gt;ITradeService&lt;/b&gt;&lt;br&gt;&lt;/p&gt;&lt;hr style=&quot;line-height: 180%;&quot; size=&quot;1&quot;&gt;&lt;p style=&quot;margin: 0px 0px 0px 4px; line-height: 180%;&quot;&gt;&lt;/p&gt;&lt;p style=&quot;border-color: var(--border-color); margin: 0px 0px 0px 4px; line-height: 24px;&quot;&gt;&lt;span style=&quot;background-color: initial;&quot;&gt;+ BuyStock&lt;/span&gt;&lt;br&gt;&lt;/p&gt;&lt;p style=&quot;border-color: var(--border-color); margin: 0px 0px 0px 4px; line-height: 24px;&quot;&gt;&lt;span style=&quot;border-color: var(--border-color); background-color: initial;&quot;&gt;+ SellStock&lt;/span&gt;&lt;/p&gt;" style="verticalAlign=top;align=left;overflow=fill;fontSize=12;fontFamily=Helvetica;html=1;whiteSpace=wrap;" vertex="1" parent="1">
          <mxGeometry x="630" y="1003" width="160" height="140" as="geometry" />
        </mxCell>
        <mxCell id="xYWJjnWucS3w8_YNbyNp-27" value="&lt;p style=&quot;margin: 4px 0px 0px; text-align: center; line-height: 180%;&quot;&gt;&lt;i&gt;&amp;lt;&amp;lt;Interface&amp;gt;&amp;gt;&lt;/i&gt;&lt;br&gt;&lt;b&gt;IExportService&lt;/b&gt;&lt;br&gt;&lt;/p&gt;&lt;hr style=&quot;line-height: 180%;&quot; size=&quot;1&quot;&gt;&lt;p style=&quot;margin: 0px 0px 0px 4px; line-height: 180%;&quot;&gt;&lt;/p&gt;&lt;p style=&quot;border-color: var(--border-color); margin: 0px 0px 0px 4px; line-height: 24px;&quot;&gt;&lt;span style=&quot;background-color: initial;&quot;&gt;+ ExportData&lt;/span&gt;&lt;br&gt;&lt;/p&gt;&lt;p style=&quot;border-color: var(--border-color); margin: 0px 0px 0px 4px; line-height: 24px;&quot;&gt;&lt;br&gt;&lt;/p&gt;" style="verticalAlign=top;align=left;overflow=fill;fontSize=12;fontFamily=Helvetica;html=1;whiteSpace=wrap;" vertex="1" parent="1">
          <mxGeometry x="240" y="1003" width="160" height="140" as="geometry" />
        </mxCell>
        <mxCell id="xYWJjnWucS3w8_YNbyNp-28" style="edgeStyle=orthogonalEdgeStyle;rounded=0;orthogonalLoop=1;jettySize=auto;html=1;entryX=0.457;entryY=0.996;entryDx=0;entryDy=0;entryPerimeter=0;" edge="1" parent="1" source="xYWJjnWucS3w8_YNbyNp-10" target="xYWJjnWucS3w8_YNbyNp-25">
          <mxGeometry relative="1" as="geometry" />
        </mxCell>
        <mxCell id="xYWJjnWucS3w8_YNbyNp-29" value="" style="endArrow=none;html=1;rounded=0;" edge="1" parent="1">
          <mxGeometry width="50" height="50" relative="1" as="geometry">
            <mxPoint x="10" y="1440" as="sourcePoint" />
            <mxPoint x="840" y="1440" as="targetPoint" />
          </mxGeometry>
        </mxCell>
        <mxCell id="xYWJjnWucS3w8_YNbyNp-30" value="" style="endArrow=none;html=1;rounded=0;" edge="1" parent="1">
          <mxGeometry width="50" height="50" relative="1" as="geometry">
            <mxPoint x="10" y="100" as="sourcePoint" />
            <mxPoint x="840" y="100" as="targetPoint" />
          </mxGeometry>
        </mxCell>
      </root>
    </mxGraphModel>
  </diagram>
</mxfile>
